<?xml version="1.0" encoding="UTF-8" standalone="yes"?>
<!DOCTYPE svg PUBLIC "-//W3C//DTD SVG 1.1//EN" "http://www.w3.org/Graphics/SVG/1.1/DTD/svg11.dtd">

<svg width="480" height="480" viewBox="0 0 480 480" xmlns="http://www.w3.org/2000/svg" xmlns:xlink="http://www.w3.org/1999/xlink" version="1.1" baseProfile="full">
    <g transform="scale(1,-1) translate(0,-480)">
        <path d="M 424.202300 16.614700 L 425.668800 16.838500 L 428.441100 17.699100 L 430.949900 19.060800 L 433.135700 20.864200 L 434.939100 23.050000 L 436.300800 25.558800 L 437.161400 28.331100 L 437.385200 29.797600 L 437.461500 31.307600 L 437.461500 293.461500 L 164.230700 293.461500 L 164.230700 323.000000 L 437.461500 323.000000 L 437.461500 422.692300 L 437.385200 424.202300 L 437.161400 425.668800 L 436.300800 428.441100 L 434.939100 430.949900 L 433.135700 433.135700 L 430.949900 434.939100 L 428.441100 436.300800 L 425.668800 437.161400 L 424.202300 437.385200 L 422.692300 437.461500 L 31.307600 437.461500 L 29.797600 437.385200 L 28.331100 437.161400 L 25.558800 436.300800 L 23.050000 434.939100 L 20.864200 433.135700 L 19.060800 430.949900 L 17.699100 428.441100 L 16.838500 425.668800 L 16.614700 424.202300 L 16.538400 422.692300 L 16.538400 160.538400 L 289.769200 160.538400 L 289.769200 130.999900 L 16.538400 130.999900 L 16.538400 31.307600 L 16.614700 29.797600 L 16.838500 28.331100 L 17.699100 25.558800 L 19.060800 23.050000 L 20.864200 20.864200 L 23.050000 19.060800 L 25.558800 17.699100 L 28.331100 16.838500 L 29.797600 16.614700 L 31.307600 16.538400 L 422.692300 16.538400 Z" transform="scale(1.000000,1.000000) translate(13.000000,13.000000)" fill="#f4f4f4" opacity="1.000000"></path>
    </g>
</svg>